<svg xmlns="http://www.w3.org/2000/svg" viewBox="0 0 64 64" role="img" aria-label="Capelo de formatura">
  <defs>
    <linearGradient id="cap" x1="0%" y1="0%" x2="100%" y2="100%">
      <stop offset="0%" stop-color="#f2b53a" />
      <stop offset="100%" stop-color="#d96f2d" />
    </linearGradient>
    <linearGradient id="band" x1="0%" y1="0%" x2="100%" y2="100%">
      <stop offset="0%" stop-color="#5b4321" />
      <stop offset="100%" stop-color="#35270c" />
    </linearGradient>
  </defs>
  <rect width="64" height="64" rx="16" fill="#fff9ef" />
  <path d="M8 24 32 14l24 10-24 10L8 24Z" fill="url(#cap)" />
  <path d="M20 30.5v8.2c0 1.3 5.6 4.8 12 4.8s12-3.5 12-4.8v-8.2l-12 5-12-5Z" fill="url(#band)" opacity=".96" />
  <path d="M50 26v11.2c0 1.8-1.5 3.3-3.3 3.3h0c-1.8 0-3.2-1.5-3.2-3.3V29.2L50 26Z" fill="url(#cap)" />
  <path d="M50 37.5c2 1.4 3.2 3.8 3.2 6.2 0 1-.8 1.8-1.8 1.8h-9.3c-1 0-1.8-.8-1.8-1.8 0-2.4 1.2-4.8 3.2-6.2" fill="#d96f2d" />
</svg>
